<svg width="55" height="55" viewBox="0 0 55 55" fill="none" xmlns="http://www.w3.org/2000/svg">
<path d="M46.0537 12.7343C41.6096 9.16297 34.5824 8.55783 34.2852 8.53232C33.8161 8.49203 33.3703 8.7579 33.1779 9.18669C33.1707 9.20146 32.7782 10.3397 32.399 11.4381C37.5634 12.3418 41.0725 14.3474 41.2591 14.4575C42.1355 14.9673 42.4291 16.0912 41.9175 16.9654C41.5782 17.5486 40.9642 17.8749 40.3335 17.8749C40.0202 17.8749 39.7046 17.7961 39.415 17.6274C39.3636 17.596 34.2158 14.6666 27.5037 14.6666C20.7903 14.6666 15.6403 17.5978 15.5889 17.6274C14.7143 18.1354 13.5926 17.8364 13.0846 16.96C12.577 16.0872 12.872 14.9673 13.7448 14.4575C13.9319 14.3474 17.4535 12.3346 22.6326 11.4327C22.2329 10.3213 21.8296 9.20146 21.8225 9.18669C21.63 8.75566 21.1842 8.48442 20.7151 8.53232C20.4179 8.55604 13.3907 9.16118 8.88798 12.7817C6.5341 14.9561 1.8335 27.6686 1.8335 38.6592C1.8335 38.8539 1.88318 39.0424 1.98031 39.2111C5.22713 44.913 14.0782 46.4052 16.0951 46.4692C16.1076 46.471 16.1188 46.471 16.13 46.471C16.4854 46.471 16.8211 46.3005 17.0319 46.0127L19.2135 43.0577C14.4287 41.9043 11.8985 40.0911 11.7463 39.9792C10.9321 39.3798 10.7562 38.2322 11.356 37.4163C11.9535 36.6043 13.0976 36.4244 13.9113 37.0206C13.9793 37.0645 18.649 40.3332 27.5002 40.3332C36.3862 40.3332 41.0429 37.0515 41.089 37.0184C41.9028 36.4284 43.0504 36.6061 43.6461 37.4239C44.2405 38.2376 44.0682 39.3781 43.2576 39.9756C43.1054 40.0875 40.5882 41.8971 35.8142 43.0501L37.9684 46.0109C38.1792 46.3005 38.5149 46.4692 38.8703 46.4692C38.8833 46.4692 38.8945 46.4692 38.9052 46.4675C40.9239 46.4034 49.775 44.9112 53.02 39.2093C53.1171 39.0406 53.1668 38.8517 53.1668 38.6574C53.1668 27.6686 48.4662 14.9561 46.0537 12.7343ZM20.1668 34.8332C18.141 34.8332 16.5002 32.7819 16.5002 30.2499C16.5002 27.7179 18.141 25.6666 20.1668 25.6666C22.1926 25.6666 23.8335 27.7179 23.8335 30.2499C23.8335 32.7819 22.1926 34.8332 20.1668 34.8332ZM34.8335 34.8332C32.8077 34.8332 31.1668 32.7819 31.1668 30.2499C31.1668 27.7179 32.8077 25.6666 34.8335 25.6666C36.8593 25.6666 38.5002 27.7179 38.5002 30.2499C38.5002 32.7819 36.8593 34.8332 34.8335 34.8332Z" fill="white"/>
</svg>
