<svg width="174" height="174" viewBox="0 0 174 174" fill="none" xmlns="http://www.w3.org/2000/svg">
<circle cx="87" cy="87" r="87" fill="#3470BE"/>
<circle cx="87.1328" cy="87.1328" r="41.1328" fill="white"/>
<path d="M84.8125 104.406C81.3906 104.25 78.0938 103.484 74.9219 102.109V94.3281C76.7344 95.25 78.7031 96.0234 80.8281 96.6484C82.9531 97.2578 84.8203 97.5625 86.4297 97.5625C87.7578 97.5625 88.7266 97.4062 89.3359 97.0938C89.9609 96.7656 90.2734 96.2266 90.2734 95.4766C90.2734 94.9609 90.0469 94.5234 89.5938 94.1641C89.1562 93.8047 88.4141 93.3984 87.3672 92.9453C86.3359 92.4922 84.9375 91.9453 83.1719 91.3047C81.1875 90.5703 79.5859 89.75 78.3672 88.8438C77.1484 87.9219 76.2578 86.8984 75.6953 85.7734C75.1484 84.6328 74.875 83.2188 74.875 81.5312C74.875 78.9531 75.7031 76.9375 77.3594 75.4844C79.0156 74.0312 81.5 73.1328 84.8125 72.7891V69.5781H89.6641V72.7422C92.7734 72.9141 95.9062 73.6797 99.0625 75.0391L96.2734 81.7188C93.0078 80.25 90.0625 79.5156 87.4375 79.5156C86.1875 79.5156 85.3047 79.6719 84.7891 79.9844C84.2891 80.2812 84.0391 80.7266 84.0391 81.3203C84.0391 81.8359 84.2188 82.2656 84.5781 82.6094C84.9531 82.9375 85.5938 83.3125 86.5 83.7344C87.4062 84.1406 88.6641 84.6172 90.2734 85.1641C93.5391 86.3203 95.8828 87.6406 97.3047 89.125C98.7266 90.5938 99.4375 92.4922 99.4375 94.8203C99.4375 97.4453 98.6016 99.5781 96.9297 101.219C95.2734 102.859 92.8516 103.875 89.6641 104.266V108.789H84.8125V104.406Z" fill="#3470BE"/>
</svg>
