<svg width="55" height="55" viewBox="0 0 55 55" fill="none" xmlns="http://www.w3.org/2000/svg">
<path d="M51.3335 12.7179C49.5789 13.4972 47.6941 14.0213 45.7162 14.2581C47.7366 13.0478 49.2858 11.1321 50.0153 8.84762C48.1269 9.96794 46.0331 10.7821 43.8041 11.2221C42.02 9.32072 39.479 8.13281 36.6668 8.13281C31.2657 8.13281 26.8879 12.5125 26.8879 17.9118C26.8879 18.6781 26.976 19.426 27.1407 20.1394C19.0138 19.7321 11.8085 15.8381 6.98348 9.92004C6.1438 11.3649 5.6613 13.0442 5.6613 14.8391C5.6613 18.2309 7.38676 21.2244 10.0101 22.9772C8.40771 22.9257 6.89888 22.4857 5.58073 21.7544C5.58073 21.7964 5.58073 21.8349 5.58073 21.8774C5.58073 26.6165 8.95064 30.5692 13.4257 31.4657C12.6061 31.6891 11.7409 31.8086 10.848 31.8086C10.2191 31.8086 9.60502 31.7459 9.00928 31.634C10.254 35.5191 13.8656 38.3479 18.1446 38.4267C14.7989 41.0505 10.5821 42.6139 5.99878 42.6139C5.21057 42.6139 4.43132 42.5682 3.66504 42.4765C7.99369 45.2502 13.1325 46.8691 18.6562 46.8691C36.6449 46.8691 46.4789 31.9679 46.4789 19.0446C46.4789 18.6212 46.4695 18.1996 46.4512 17.7797C48.3633 16.3994 50.0225 14.6779 51.3335 12.7179Z" fill="white"/>
</svg>
